<svg width="22" height="21" viewBox="0 0 22 21" fill="none" xmlns="http://www.w3.org/2000/svg">
<g id="01 align center">
<path id="Vector" d="M21.2798 19.1844L15.764 14.0476C17.1968 12.4157 17.9013 10.3333 17.7317 8.23125C17.5621 6.12917 16.5314 4.16821 14.8529 2.75399C13.1743 1.33976 10.9763 0.580464 8.71352 0.633154C6.4507 0.685845 4.29619 1.54649 2.69564 3.03707C1.09509 4.52765 0.170946 6.53413 0.114369 8.64147C0.0577912 10.7488 0.873107 12.7958 2.39167 14.359C3.91024 15.9222 6.01587 16.8821 8.27303 17.04C10.5302 17.1979 12.7662 16.5419 14.5185 15.2075L20.0343 20.3443L21.2798 19.1844ZM8.94814 15.4225C7.55444 15.4225 6.19204 15.0376 5.03322 14.3165C3.8744 13.5954 2.97121 12.5705 2.43787 11.3713C1.90452 10.1722 1.76497 8.85269 2.03687 7.57969C2.30877 6.30669 2.9799 5.13736 3.96539 4.21958C4.95088 3.3018 6.20648 2.67678 7.5734 2.42356C8.94032 2.17035 10.3572 2.30031 11.6448 2.79701C12.9324 3.29371 14.0329 4.13484 14.8072 5.21404C15.5815 6.29323 15.9948 7.56203 15.9948 8.85997C15.9927 10.5998 15.2496 12.2679 13.9286 13.4982C12.6075 14.7285 10.8164 15.4205 8.94814 15.4225Z" fill="black"/>
</g>
</svg>
